<?xml version="1.0" encoding="UTF-8" standalone="no"?>
<svg
   xmlns:dc="http://purl.org/dc/elements/1.1/"
   xmlns:cc="http://creativecommons.org/ns#"
   xmlns:rdf="http://www.w3.org/1999/02/22-rdf-syntax-ns#"
   xmlns:svg="http://www.w3.org/2000/svg"
   xmlns="http://www.w3.org/2000/svg"
   xmlns:sodipodi="http://sodipodi.sourceforge.net/DTD/sodipodi-0.dtd"
   xmlns:inkscape="http://www.inkscape.org/namespaces/inkscape"
   version="1.1"
   x="0px"
   y="0px"
   viewBox="0 0 100 100"
   enable-background="new 0 0 100 100"
   xml:space="preserve"
   id="svg4"
   sodipodi:docname="link.svg"
   inkscape:version="0.92.4 (5da689c313, 2019-01-14)"><metadata
     id="metadata10"><rdf:RDF><cc:Work
         rdf:about=""><dc:format>image/svg+xml</dc:format><dc:type
           rdf:resource="http://purl.org/dc/dcmitype/StillImage" /></cc:Work></rdf:RDF></metadata><defs
     id="defs8" /><sodipodi:namedview
     pagecolor="#ffffff"
     bordercolor="#666666"
     borderopacity="1"
     objecttolerance="10"
     gridtolerance="10"
     guidetolerance="10"
     inkscape:pageopacity="0"
     inkscape:pageshadow="2"
     inkscape:window-width="2400"
     inkscape:window-height="1271"
     id="namedview6"
     showgrid="false"
     inkscape:zoom="9.44"
     inkscape:cx="55.15302"
     inkscape:cy="40.445511"
     inkscape:window-x="2391"
     inkscape:window-y="-9"
     inkscape:window-maximized="1"
     inkscape:current-layer="svg4" /><g
     id="g821"><rect
       y="18.008474"
       x="21.345339"
       height="63.983051"
       width="57.309322"
       id="rect817"
       style="opacity:1;fill:#ffffff;fill-opacity:1;fill-rule:nonzero;stroke:none;stroke-width:11.17228317;stroke-linecap:square;stroke-linejoin:bevel;stroke-miterlimit:0;stroke-dasharray:none;stroke-dashoffset:34.77165222;stroke-opacity:1;paint-order:markers fill stroke" /><path
       id="path2"
       d="M50,5C25.1,5,5,25.2,5,50c0,24.9,20.1,45,45,45c24.9,0,45-20.1,45-45C95,25.2,74.9,5,50,5L50,5z M76,45.4  c0,1.9-1.5,3.4-3.4,3.4c-1.9,0-3.3-1.5-3.3-3.4v-9.9l-6.2,6.2v30.9c0,1.9-1.5,3.3-3.4,3.3H27.4c-1.9,0-3.4-1.5-3.4-3.3V40.3  c0-1.8,1.5-3.3,3.4-3.3h30.9l6.2-6.2h-9.9c-1.9,0-3.3-1.5-3.3-3.4c0-1.8,1.5-3.3,3.3-3.3h18c1.9,0,3.4,1.5,3.4,3.3V45.4z M41.2,58.8  c-1.3-1.3-1.3-3.4,0-4.7l10.4-10.4H30.8v25.6h25.6V48.4L45.9,58.8C44.6,60.1,42.5,60.1,41.2,58.8z" /></g></svg>